# xmcd
#
# Track frame offsets:
#	150
#	18800
#	37138
#
# Disc length: 661 seconds
#
# Revision: 3
# Processed by: cddbd v1.5.2PL0 Copyright (c) Steve Scherf et al.
# Submitted via: audiograbber 1.83.01
#
DISCID=1b029303
DTITLE=Die Toten Hosen - Hier kommt Alex (unplugged) (Single)
DYEAR=2005
DGENRE=Acoustic Rock
TTITLE0=Hier kommt Alex (unplugged) (Single Version)
TTITLE1=Was zählt (unplugged)
TTITLE2=You'll never walk alone (unplugged)
EXTD=YEAR: 2005
EXTT0=
EXTT1=
EXTT2=
PLAYORDER=
